<?xml version="1.0" encoding="utf-8"?>
<!DOCTYPE svg PUBLIC "-//W3C//DTD SVG 1.1//EN" "http://www.w3.org/Graphics/SVG/1.1/DTD/svg11.dtd">
<svg version="1.1" id="Layer_1" xmlns="http://www.w3.org/2000/svg" xmlns:xlink="http://www.w3.org/1999/xlink" x="0px" y="0px"
	 viewBox="0 0 1920 1469" enable-background="new 0 0 1920 1469" xml:space="preserve">
<g id="_x23_000000ff">
	<path d="M360.09,37.33c0.9939-2.6571,4.0345-3.6594,4.88-6.41c1.347,3.6489,4.6703,5.1061,6.0412,9.0525
		c1.5988,4.6022,2.5008,9.4686,3.3021,14.2608c1.7036,10.1877,2.6834,20.5938,3.6288,30.876
		c0.9738,10.5926,1.3609,21.2261,2.0606,31.8377c0.5307,8.0479-0.2883,21.216,7.5673,26.353
		c7.2955,4.8202,16.1326,6.742,23.14,12.06c7.504,5.6673,13.5609,12.9198,19.8436,19.845
		c14.7921,16.3049,29.2231,31.3722,40.788,50.3053c22.1558,36.2718,50.0648,69.3881,75.9589,103.1003
		c12.6644,16.4881,26.4328,32.108,38.807,48.8132c12.5796,16.9825,23.694,36.5554,39.7613,50.5489
		c14.7123,12.8134,34.4451,20.0662,52.5141,26.7403c20.4362,7.5485,40.8347,15.3948,62.2805,19.5922
		c40.9571,8.0161,82.576,12.4569,123.5566,19.9448c43.6649,7.8534,88.0233,11.3893,132.0419,16.5756
		c44.1481,5.2015,87.503,13.6826,132.1274,13.975c45.274,0.2966,89.4445,6.0536,134.2054,12.1957
		c43.9187,6.0264,89.0913,6.509,133.4164,7.9464c45.1497,1.4642,90.4843-1.121,135.683-1.0588
		c44.016,0.0605,88.0823-0.8564,132.0759-2.2238c43.7302-2.4944,87.7147-5.26,131.51-6.1
		c17.8743-0.9008,43.2531-3.0851,59.6799,5.38c6.146,2.2281-0.7034,11.1602-3.62,12.63c-9.4681,4.3635-19.9816,5.554-30.2292,6.6766
		c-40.4938,4.436-81.0007,6.0527-121.6205,8.7784c-42.0096,2.819-83.9193,8.6809-125.8693,12.4575
		c-42.978,3.869-85.7817,6.8239-128.8521,9.1273c-20.0552,1.0726-39.9232,1.6669-59.8326,4.5615
		c-8.1453,1.1842-17.6993,1.0378-25.4437,3.9662c-10.9404,4.1369-1.9595,17.2089,1.22,23.4937
		c3.9406,7.7894,8.8657,16.1089,11.4575,24.4388c3.0503,9.4233,3.2012,18.7869,7.2717,28.0644
		c9.0153,20.5473,11.3459,37.9644,7.845,60.1151c-3.2144,20.337-0.1184,41.1281-3.688,61.5518
		c-3.9703,22.7167-8.4539,46.1873-8.207,69.3553c0.1973,18.528,1.2588,39.8373,7.3883,57.4634
		c6.2361,19.8174,17.5326,37.4639,28.77,54.75c11.2991,15.6151,25.7583,28.959,38.7059,43.1793
		c14.4117,15.8286,31.3569,26.4243,48.0784,39.413c16.5946,12.8903,7.3723,30.8037,5.1569,48.2765
		c-2.7976,22.0648-1.7587,43.3009-1.864,65.329c-0.1984,41.4657-3.9603,82.8796-4.4872,124.4323
		c-1.0698,19.2076,1.0067,42.71-6.1876,60.7966c-8.5364,21.4607-23.1034,30.4362-45.7195,29.8336
		c-18.7906-0.5006-38.3442,3.4333-56.9581,0.2833c-8.7515-1.481-16.1403-6.5575-24.4841-9.3361
		c-9.7565-3.249-9.9656-10.7821-5.5905-19.4441c3.8356-7.5939,10.3357-10.4587,17.2874-14.5347
		c7.3103-4.2863,11.7834-11.1265,16.4336-17.9847c10.7625-15.8728,26.4095-23.8215,32.5475-43.1024
		c5.9093-18.5631,7.5718-37.3925,10.7166-56.4952c3.4042-20.6788,3.4696-41.9819-4.0305-61.7599
		c-14.0608-37.0786-46.7826-67.9398-76.494-92.7728c-32.827-27.4371-70.1958-47.905-104.3328-73.4664
		c-32.5972-24.4085-55.2699-57.4703-70.528-94.8316c-3.8478-9.4215-7.3735-18.9705-10.8004-28.5519
		c-2.1409-5.9861-4.3423-20.3729-11.3295-22.9637c-21.707-3.5836-43.7517,7.7452-65.75,1.05
		c-15.6187-4.2736-6.1772-35.0576-19.2483-44.7986c-14.4063-10.736-40.4941-12.9379-57.6617-12.4614
		c-20.4613-0.3499-39.3797,8.554-57.91,16.09c-20.4476,8.8126-41.0806,17.955-62.6929,23.5453
		c-19.3069,4.9941-38.9108,9.3328-57.349,17.1093c-19.3937,8.1794-38.3607,17.1094-58.9638,21.8408
		c-20.4926,4.7059-41.0518,6.5536-62.0429,7.5306c-9.8692,0.4594-19.478,1.7097-29.2827,2.6699
		c-8.9077,0.8724-24.2743-2.1913-31.5395,4.3511c-6.3707,5.7368-2.1277,15.2552-3.0593,22.463
		c-1.0895,9.1361-2.8538,18.2792-6.4,26.81c-8.7428,21.4053-16.8666,41.7687-20.9401,64.5593
		c-7.6265,42.6691-10.1796,86.183-16.605,129.063c-3.0854,20.5903-6.207,42.5089-3.5031,63.2825
		c1.1725,9.0083,3.6132,17.6711,7.2781,25.9832c2.7272,6.1852,10.3039,19.6075,1.53,24.582
		c-6.6382,3.1848-15.2261,0.9932-19.7535,8.0487c-4.8488,7.5563-5.5786,18.3982-7.2516,26.9807
		c-4.3749,22.4432-4.356,45.837-9.23,68.0281c-3.7784,17.203-15.8781,36.2198-34.3902,38.3386
		c-9.398,1.0756-18.5251-0.8232-27.9048-0.426c-11.5914-0.519-23.0141,1.7181-34.6798,0.8838
		c-9.5063-0.6799-16.6943-3.6571-25.2188-7.5516c-6.5585-2.9963-16.4905-2.8499-15.8543-12.0663
		c0.5776-8.3683,5.7482-16.9241,13.0369-21.0526c9.3889-5.3181,15.3914-9.4573,21.7147-18.5159
		c9.5373-13.6628,25.7982-21.3358,33.7049-35.8918c9.8064-18.0532,15.2967-40.0541,17.2664-60.4063
		c4.2155-43.5577,1.1856-86.8628-0.3274-130.4617c-0.7136-20.5641-0.9483-41.1322-1.1013-61.7076
		c-0.1677-22.5612-3.3982-44.9476-4.1913-67.48c-1.2313-20.1694-8.4216-38.7659-14.0079-57.9741
		c-6.4784-22.2756-12.7206-44.4639-20.6215-66.2948c-6.8012-18.7924-20.773-30.6155-31.7973-46.7969
		c-12.4917-18.3352-21.9019-37.0534-28.0953-58.364c-5.4939-18.9034-12.3608-39.9586-10.5056-59.8688
		c2.0706-22.2217,7.4477-45.4831,7.4477-67.7214c0.5986-41.4274-9.6666-81.6435-30.49-117.63
		c-19.5179-34.9437-40.5225-77.6906-76.1529-98.3175c-18.9548-10.9732-37.7643-12.2478-59.2199-12.7743
		c-22.4432-0.5507-43.9859,0.0414-66.1273-2.7983c-20.5243-1.9931-41.361-2.2677-61.9538-3.3775
		c-8.8034-0.4744-18.8331-0.4566-26.7189-4.9714c-8.2699-4.7346-11.6424-13.8898-18.6555-19.9265
		c-13.428-11.5585-19.6393-24.4496-25.7656-40.9758c-2.8177-7.601-9.5603-15.2583-9.8731-23.5178
		c-0.3826-10.1021,9.3697-14.4364,17.1241-17.8594c18.2756-8.0675,37.3343-15.0864,56.5102-20.686
		c21.0111-6.1355,43.1307-10.7807,62.8938-20.4904c16.7874-8.2478,25.0828-20.3188,35.1225-35.281
		c10.1811-15.1729,34.0416-24.3401,50.0203-31.9834c16.4339-7.861,37.1996-13.5266,51.3048-25.3029
		c7.0276-5.8673,9.2972-15.577,12.0232-23.9032c3.683-11.2492,9.3064-21.6465,13.428-32.7146
		C351.1344,69.7254,352.8801,52.7868,360.09,37.33C361.07,34.71,357.1,43.74,360.09,37.33z"/>
</g>
</svg>
